<?xml version="1.0" encoding="iso-8859-1"?>
<!-- Generator: Adobe Illustrator 19.1.0, SVG Export Plug-In . SVG Version: 6.00 Build 0)  -->
<svg version="1.1" id="Capa_1" xmlns="http://www.w3.org/2000/svg" xmlns:xlink="http://www.w3.org/1999/xlink" x="0px" y="0px"
	 viewBox="0 0 439.5 439.5" style="enable-background:new 0 0 439.5 439.5;" xml:space="preserve">
<g>
	<g id="XMLID_27_">
		<g>
			<polygon style="fill:#7FDDD3;" points="359.39,55.215 429.27,152.185 359.38,152.185 289.51,152.185 			"/>
			<polygon style="fill:#7FDDD3;" points="149.76,152.185 219.84,384.285 10,152.185 			"/>
			<polygon style="fill:#7FDDD3;" points="219.63,55.215 149.76,152.185 79.88,55.215 			"/>
			<polygon style="fill:#95EFEF;" points="79.88,55.215 149.76,152.185 10,152.185 			"/>
			<polygon style="fill:#FFFFFF;" points="429.5,152.385 219.84,384.285 289.51,152.185 359.38,152.185 429.27,152.185 			"/>
			<polygon style="fill:#FFFFFF;" points="359.39,55.215 289.51,152.185 219.63,55.215 			"/>
			<polygon style="fill:#95EFEF;" points="219.63,55.215 289.51,152.185 149.76,152.185 			"/>
			<polygon style="fill:#95EFEF;" points="289.51,152.185 219.84,384.285 149.76,152.185 			"/>
		</g>
		<g>
			<polyline style="fill:none;stroke:#000000;stroke-width:20;stroke-linejoin:round;stroke-miterlimit:10;" points="
				429.68,152.185 429.5,152.385 219.84,384.285 10,152.185 			"/>
			<polygon style="fill:none;stroke:#000000;stroke-width:20;stroke-linejoin:round;stroke-miterlimit:10;" points="10,152.185 
				79.88,55.215 149.76,152.185 			"/>
			<polygon style="fill:none;stroke:#000000;stroke-width:20;stroke-linejoin:round;stroke-miterlimit:10;" points="149.76,152.185 
				219.63,55.215 289.51,152.185 			"/>
			<polygon style="fill:none;stroke:#000000;stroke-width:20;stroke-linejoin:round;stroke-miterlimit:10;" points="289.51,152.185 
				359.39,55.215 429.27,152.185 359.38,152.185 			"/>
			<polyline style="fill:none;stroke:#000000;stroke-width:20;stroke-linejoin:round;stroke-miterlimit:10;" points="79.88,55.215 
				219.63,55.215 359.39,55.215 			"/>
			<polyline style="fill:none;stroke:#000000;stroke-width:20;stroke-linejoin:round;stroke-miterlimit:10;" points="
				149.76,152.185 219.84,384.285 289.51,152.185 			"/>
		</g>
	</g>
</g>
<g>
</g>
<g>
</g>
<g>
</g>
<g>
</g>
<g>
</g>
<g>
</g>
<g>
</g>
<g>
</g>
<g>
</g>
<g>
</g>
<g>
</g>
<g>
</g>
<g>
</g>
<g>
</g>
<g>
</g>
</svg>
